<svg width="86" height="86" viewBox="0 0 86 86" fill="none" xmlns="http://www.w3.org/2000/svg">
<rect x="2" y="2" width="82" height="82" rx="41" fill="#C30C85" stroke="#ffffff" stroke-width="4"/>
<path d="M55.8087 54.88C57.0876 58.2162 56.6706 61.3299 54.5576 64.2213C52.4447 67.1127 49.4699 68.5584 45.6333 68.5584C43.7984 68.5584 42.0608 68.0857 40.4205 67.1405C38.7802 66.1952 37.5709 64.9442 36.7924 63.3873C32.1773 64.0545 28.3546 62.8729 25.3242 59.8426C22.2939 56.8122 21.0567 52.9339 21.6127 48.2076C19.9446 47.2623 18.6657 45.9695 17.7761 44.3292C16.8864 42.689 16.4416 40.8123 16.4416 38.6994C16.4416 35.3076 17.9846 32.5692 21.0706 30.484C24.1566 28.3989 27.173 27.968 30.12 29.1913L35.2911 31.3598C36.4032 29.6361 37.8767 28.2321 39.7116 27.1478C41.5465 26.0636 43.5204 25.4658 45.6333 25.3546V21.0176C45.6333 20.2947 45.8696 19.697 46.3423 19.2244C46.8149 18.7518 47.4126 18.5154 48.1355 18.5154C48.8583 18.5154 49.456 18.7518 49.9287 19.2244C50.4013 19.697 50.6376 20.2947 50.6376 21.0176V26.0219C52.6949 26.6335 54.3908 27.5927 55.7253 28.8993C57.0598 30.206 58.1997 32.027 59.1449 34.3624H63.9824C64.7052 34.3624 65.303 34.5987 65.7756 35.0713C66.2482 35.5439 66.4845 36.1417 66.4845 36.8645C66.4845 37.5874 66.2482 38.1851 65.7756 38.6577C65.303 39.1303 64.7052 39.3667 63.9824 39.3667H59.6453C59.5341 41.4796 58.9642 43.4535 57.9355 45.2884C56.9069 47.1233 55.5307 48.5968 53.807 49.7089L55.8087 54.88ZM28.9524 43.2033C30.7317 43.2033 32.3024 42.9809 33.6647 42.536C35.027 42.0912 36.7924 41.2016 38.9609 39.8671L28.9524 35.6968C27.3399 35.0296 25.9637 35.0435 24.8238 35.7385C23.6839 36.4336 23.114 37.5318 23.114 39.033C23.114 40.4787 23.5866 41.5352 24.5319 42.2024C25.4771 42.8697 26.9506 43.2033 28.9524 43.2033ZM45.6333 61.886C47.0234 61.886 48.1494 61.3994 49.0112 60.4264C49.8731 59.4533 50.0816 58.4386 49.6368 57.3821L45.1329 46.039C44.0764 47.8184 43.2563 49.5977 42.6725 51.377C42.0886 53.1563 41.7967 54.7688 41.7967 56.2144C41.7967 58.0494 42.1164 59.4533 42.7559 60.4264C43.3953 61.3994 44.3545 61.886 45.6333 61.886ZM51.138 43.3701C51.6941 42.8141 52.1389 42.0773 52.4725 41.1599C52.8061 40.2424 52.973 39.2833 52.973 38.2824C52.973 36.5031 52.3891 35.0018 51.2215 33.7785C50.0538 32.5553 48.6081 31.9436 46.8844 31.9436C45.8835 31.9436 44.9383 32.1104 44.0486 32.4441C43.159 32.7777 42.4083 33.2503 41.7967 33.8619L48.3023 36.8645L51.138 43.3701Z" fill="#E8EAED"/>
</svg>
