<svg width="86" height="86" viewBox="0 0 86 86" fill="none" xmlns="http://www.w3.org/2000/svg">
<rect x="2" y="2" width="82" height="82" rx="41" fill="#2C7911" stroke="#ffffff" stroke-width="4"/>
<path d="M43 64.1666C39.9278 64.1666 37.05 63.5833 34.3667 62.4166C31.6833 61.25 29.3403 59.6653 27.3375 57.6625C25.3347 55.6597 23.75 53.3166 22.5833 50.6333C21.4167 47.95 20.8333 45.0722 20.8333 42C20.8333 38.9278 21.4167 36.05 22.5833 33.3666C23.75 30.6833 25.3347 28.3403 27.3375 26.3375C29.3403 24.3347 31.6833 22.75 34.3667 21.5833C37.05 20.4166 39.9278 19.8333 43 19.8333V16.8C43 16.2555 43.2333 15.8861 43.7 15.6916C44.1667 15.4972 44.5944 15.5944 44.9833 15.9833L50.7 21.7C51.1667 22.1666 51.4 22.7111 51.4 23.3333C51.4 23.9555 51.1667 24.5 50.7 24.9666L44.9833 30.6833C44.5944 31.0722 44.1667 31.1694 43.7 30.975C43.2333 30.7805 43 30.4111 43 29.8666V26.8333C38.8 26.8333 35.2222 28.3111 32.2667 31.2666C29.3111 34.2222 27.8333 37.8 27.8333 42C27.8333 44.5666 28.4264 46.9486 29.6125 49.1458C30.7986 51.343 32.3833 53.1222 34.3667 54.4833C34.9889 53.3944 35.9125 52.4708 37.1375 51.7125C38.3625 50.9541 39.7722 50.4778 41.3667 50.2833C41.25 49.4666 41.0944 48.65 40.9 47.8333C40.7056 47.0166 40.4722 46.2583 40.2 45.5583C39.7722 45.9083 39.3056 46.1805 38.8 46.375C38.2944 46.5694 37.75 46.6666 37.1667 46.6666C35.8833 46.6666 34.7847 46.2097 33.8708 45.2958C32.9569 44.3819 32.5 43.2833 32.5 42V39.6666C32.5 39.3555 32.4708 39.0541 32.4125 38.7625C32.3542 38.4708 32.2861 38.1889 32.2083 37.9166C32.0139 37.4889 32.0431 37.0903 32.2958 36.7208C32.5486 36.3514 32.8889 36.1861 33.3167 36.225C35.0667 36.3028 36.9139 36.7305 38.8583 37.5083C40.8028 38.2861 41.7944 39.7833 41.8333 42C41.8333 42.35 41.8042 42.6708 41.7458 42.9625C41.6875 43.2541 41.5806 43.5555 41.425 43.8666C40.9194 43.4778 40.4139 43.1278 39.9083 42.8166C39.4028 42.5055 38.8778 42.2333 38.3333 42C38.9944 42.5055 39.7528 43.2833 40.6083 44.3333C41.4639 45.3833 42.2611 46.6278 43 48.0666C43.7778 46.1611 44.75 44.2847 45.9167 42.4375C47.0833 40.5903 48.4444 38.8889 50 37.3333C49.1056 37.9555 48.25 38.6166 47.4333 39.3166C46.6167 40.0166 45.8194 40.7555 45.0417 41.5333C44.7694 41.1055 44.5556 40.6291 44.4 40.1041C44.2444 39.5791 44.1667 39.0444 44.1667 38.5C44.1667 36.8666 44.7306 35.4861 45.8583 34.3583C46.9861 33.2305 48.3667 32.6666 50 32.6666H52.3333C52.8778 32.6666 53.4514 32.5986 54.0542 32.4625C54.6569 32.3264 55.1722 32.0639 55.6 31.675C55.8722 31.4028 56.1833 31.3347 56.5333 31.4708C56.8833 31.6069 57.0583 31.8694 57.0583 32.2583C57.0583 33.2305 56.9903 34.4069 56.8542 35.7875C56.7181 37.168 56.4069 38.4903 55.9208 39.7541C55.4347 41.018 54.725 42.0972 53.7917 42.9916C52.8583 43.8861 51.5944 44.3333 50 44.3333C49.4167 44.3333 48.8625 44.2555 48.3375 44.1C47.8125 43.9444 47.3361 43.7305 46.9083 43.4583C46.6361 44.1972 46.325 45.1791 45.975 46.4041C45.625 47.6291 45.3528 48.9416 45.1583 50.3416C46.6361 50.6139 47.9389 51.1194 49.0667 51.8583C50.1944 52.5972 51.05 53.4722 51.6333 54.4833C53.2667 53.3555 54.6278 51.9555 55.7167 50.2833C56.8056 48.6111 57.5444 46.7639 57.9333 44.7416C58.1278 43.7694 58.5653 42.9528 59.2458 42.2916C59.9264 41.6305 60.7333 41.3 61.6667 41.3C62.6778 41.3 63.5236 41.6597 64.2042 42.3791C64.8847 43.0986 65.1472 43.9444 64.9917 44.9166C64.2917 50.4 61.8708 54.9791 57.7292 58.6541C53.5875 62.3291 48.6778 64.1666 43 64.1666Z" fill="#E8EAED"/>
</svg>
