<svg width="86" height="86" viewBox="0 0 86 86" fill="none" xmlns="http://www.w3.org/2000/svg">
<rect x="2" y="2" width="82" height="82" rx="41" fill="#C49B0C" stroke="#ffffff" stroke-width="4"/>
<path d="M43 39.375C44.6917 39.375 46.1215 38.791 47.2896 37.6229C48.4576 36.4549 49.0417 35.025 49.0417 33.3334C49.0417 31.6417 48.4576 30.2118 47.2896 29.0438C46.1215 27.8757 44.6917 27.2917 43 27.2917C41.3083 27.2917 39.8785 27.8757 38.7104 29.0438C37.5424 30.2118 36.9583 31.6417 36.9583 33.3334C36.9583 35.025 37.5424 36.4549 38.7104 37.6229C39.8785 38.791 41.3083 39.375 43 39.375ZM43 50.25C41.4292 50.25 40.0094 49.817 38.7406 48.9511C37.4719 48.0851 36.5556 46.9472 35.9917 45.5375C35.7903 45.5375 35.609 45.5476 35.4479 45.5677C35.2868 45.5879 35.1056 45.5979 34.9042 45.5979C32.8097 45.5979 31.0174 44.8528 29.5271 43.3625C28.0368 41.8722 27.2917 40.0799 27.2917 37.9854C27.2917 37.1396 27.4326 36.324 27.7146 35.5386C27.9965 34.7531 28.4194 34.0181 28.9833 33.3334C28.4597 32.6486 28.0569 31.9136 27.775 31.1281C27.493 30.3427 27.3521 29.5271 27.3521 28.6813C27.3521 26.5868 28.0871 24.7945 29.5573 23.3042C31.0274 21.8139 32.8097 21.0688 34.9042 21.0688C35.1056 21.0688 35.2868 21.0788 35.4479 21.099C35.609 21.1191 35.7903 21.1292 35.9917 21.1292C36.5556 19.7195 37.4719 18.5816 38.7406 17.7156C40.0094 16.8497 41.4292 16.4167 43 16.4167C44.5708 16.4167 45.9906 16.8497 47.2594 17.7156C48.5281 18.5816 49.4444 19.7195 50.0083 21.1292C50.2097 21.1292 50.391 21.1191 50.5521 21.099C50.7132 21.0788 50.8944 21.0688 51.0958 21.0688C53.1903 21.0688 54.9726 21.8139 56.4427 23.3042C57.9128 24.7945 58.6479 26.5868 58.6479 28.6813C58.6479 29.5271 58.517 30.3427 58.2552 31.1281C57.9934 31.9136 57.5806 32.6486 57.0167 33.3334C57.5403 34.0181 57.9431 34.7531 58.225 35.5386C58.5069 36.324 58.6479 37.1396 58.6479 37.9854C58.6479 40.0799 57.9128 41.8722 56.4427 43.3625C54.9726 44.8528 53.1903 45.5979 51.0958 45.5979C50.8944 45.5979 50.7132 45.5879 50.5521 45.5677C50.391 45.5476 50.2097 45.5375 50.0083 45.5375C49.4444 46.9472 48.5281 48.0851 47.2594 48.9511C45.9906 49.817 44.5708 50.25 43 50.25ZM43 67.1063C43 62.0313 44.5306 57.5403 47.5917 53.6334C50.6528 49.7264 54.5396 47.1889 59.2521 46.0209C60.0174 45.8195 60.7726 45.749 61.5177 45.8094C62.2628 45.8698 62.9174 46.182 63.4812 46.7459C63.9646 47.2695 64.2365 47.8938 64.2969 48.6188C64.3573 49.3438 64.2868 50.0486 64.0854 50.7334C62.9576 55.4861 60.4302 59.4031 56.5031 62.4844C52.576 65.5656 48.075 67.1063 43 67.1063ZM43 67.1667C43 62.0917 41.4694 57.6007 38.4083 53.6938C35.3472 49.7868 31.4604 47.2493 26.7479 46.0813C25.9826 45.8799 25.2274 45.8094 24.4823 45.8698C23.7371 45.9302 23.0826 46.2424 22.5187 46.8063C22.0354 47.3299 21.7635 47.9542 21.7031 48.6792C21.6427 49.4042 21.7132 50.109 21.9146 50.7938C23.0424 55.5465 25.5698 59.4636 29.4969 62.5448C33.424 65.6261 37.925 67.1667 43 67.1667Z" fill="#E8EAED"/>
</svg>
